<svg width="61" height="60" viewBox="0 0 61 60" fill="none" xmlns="http://www.w3.org/2000/svg">
<circle cx="30.5" cy="30.0002" r="30" fill="white"/>
<path fill-rule="evenodd" clip-rule="evenodd" d="M25.0024 16.7469C26.4242 16.6814 26.8775 16.6669 30.4993 16.6669C34.1212 16.6669 34.5745 16.6826 35.9951 16.7469C37.4157 16.8111 38.3854 17.0378 39.2339 17.3663C40.1224 17.702 40.9284 18.2269 41.5951 18.9057C42.2739 19.5711 42.7975 20.376 43.1321 21.2657C43.4618 22.1141 43.6872 23.0838 43.7527 24.502C43.8181 25.9263 43.8327 26.3796 43.8327 30.0002C43.8327 33.622 43.8169 34.0754 43.7527 35.4972C43.6884 36.9154 43.4618 37.8851 43.1321 38.7335C42.7975 39.6233 42.273 40.4295 41.5951 41.096C40.9284 41.7747 40.1224 42.2984 39.2339 42.6329C38.3854 42.9626 37.4157 43.1881 35.9975 43.2535C34.5745 43.319 34.1212 43.3335 30.4993 43.3335C26.8775 43.3335 26.4242 43.3178 25.0024 43.2535C23.5842 43.1893 22.6145 42.9626 21.766 42.6329C20.8762 42.2983 20.07 41.7738 19.4036 41.096C18.7253 40.4301 18.2003 39.6243 17.8654 38.7347C17.5369 37.8863 17.3115 36.9166 17.246 35.4984C17.1806 34.0741 17.166 33.6208 17.166 30.0002C17.166 26.3784 17.1818 25.9251 17.246 24.5044C17.3103 23.0838 17.5369 22.1141 17.8654 21.2657C18.2008 20.3761 18.7262 19.5703 19.4048 18.9044C20.0703 18.2263 20.8757 17.7013 21.7648 17.3663C22.6133 17.0378 23.583 16.8123 25.0012 16.7469H25.0024ZM35.8872 19.1469C34.4812 19.0826 34.0593 19.0693 30.4993 19.0693C26.9393 19.0693 26.5175 19.0826 25.1115 19.1469C23.8109 19.2063 23.1054 19.4232 22.6351 19.6063C22.0133 19.8487 21.5684 20.136 21.1018 20.6026C20.6594 21.033 20.319 21.5569 20.1054 22.136C19.9224 22.6063 19.7054 23.3117 19.646 24.6123C19.5818 26.0184 19.5684 26.4402 19.5684 30.0002C19.5684 33.5602 19.5818 33.982 19.646 35.3881C19.7054 36.6887 19.9224 37.3941 20.1054 37.8644C20.3187 38.4426 20.6593 38.9675 21.1018 39.3978C21.5321 39.8402 22.0569 40.1808 22.6351 40.3941C23.1054 40.5772 23.8109 40.7941 25.1115 40.8535C26.5175 40.9178 26.9381 40.9311 30.4993 40.9311C34.0606 40.9311 34.4812 40.9178 35.8872 40.8535C37.1878 40.7941 37.8933 40.5772 38.3636 40.3941C38.9854 40.1517 39.4303 39.8644 39.8969 39.3978C40.3393 38.9675 40.68 38.4426 40.8933 37.8644C41.0763 37.3941 41.2933 36.6887 41.3527 35.3881C41.4169 33.982 41.4303 33.5602 41.4303 30.0002C41.4303 26.4402 41.4169 26.0184 41.3527 24.6123C41.2933 23.3117 41.0763 22.6063 40.8933 22.136C40.6509 21.5141 40.3636 21.0693 39.8969 20.6026C39.4665 20.1603 38.9426 19.8199 38.3636 19.6063C37.8933 19.4232 37.1878 19.2063 35.8872 19.1469ZM28.7963 34.1105C29.7474 34.5064 30.8065 34.5599 31.7926 34.2617C32.7787 33.9635 33.6307 33.3322 34.2031 32.4756C34.7755 31.6191 35.0327 30.5904 34.9309 29.5652C34.8291 28.54 34.3745 27.582 33.6448 26.8547C33.1796 26.3899 32.6172 26.0339 31.9979 25.8125C31.3787 25.5911 30.7181 25.5097 30.0636 25.5743C29.4091 25.6388 28.7771 25.8477 28.2131 26.1858C27.649 26.5239 27.1669 26.9829 26.8015 27.5297C26.4362 28.0765 26.1965 28.6975 26.1 29.348C26.0034 29.9985 26.0523 30.6624 26.243 31.2917C26.4338 31.9211 26.7618 32.5003 27.2033 32.9877C27.6448 33.4752 28.1888 33.8586 28.7963 34.1105ZM25.6533 25.1541C26.2897 24.5177 27.0452 24.0129 27.8767 23.6685C28.7082 23.3241 29.5994 23.1468 30.4993 23.1468C31.3993 23.1468 32.2905 23.3241 33.122 23.6685C33.9535 24.0129 34.709 24.5177 35.3454 25.1541C35.9818 25.7905 36.4866 26.546 36.831 27.3775C37.1754 28.209 37.3527 29.1002 37.3527 30.0002C37.3527 30.9002 37.1754 31.7914 36.831 32.6229C36.4866 33.4544 35.9818 34.2099 35.3454 34.8463C34.0602 36.1315 32.317 36.8536 30.4993 36.8536C28.6817 36.8536 26.9385 36.1315 25.6533 34.8463C24.368 33.561 23.646 31.8178 23.646 30.0002C23.646 28.1826 24.368 26.4394 25.6533 25.1541ZM38.8727 24.1675C39.0304 24.0187 39.1566 23.8398 39.244 23.6414C39.3313 23.443 39.3779 23.229 39.3811 23.0122C39.3842 22.7955 39.3439 22.5803 39.2624 22.3794C39.1809 22.1785 39.0599 21.996 38.9066 21.8427C38.7533 21.6894 38.5708 21.5684 38.3699 21.4869C38.169 21.4054 37.9538 21.365 37.737 21.3682C37.5202 21.3713 37.3063 21.418 37.1079 21.5053C36.9094 21.5926 36.7305 21.7189 36.5818 21.8766C36.2925 22.1833 36.1341 22.5907 36.1402 23.0122C36.1463 23.4338 36.3166 23.8364 36.6147 24.1346C36.9128 24.4327 37.3154 24.6029 37.737 24.6091C38.1586 24.6152 38.566 24.4568 38.8727 24.1675Z" fill="#004D22"/>
</svg>
